<?xml version="1.0" encoding="UTF-8"?> <svg xmlns="http://www.w3.org/2000/svg" height="54" viewBox="0 0 216 54" width="216"><g fill="#003781"><path d="m19.6840104 28.5821483h-7.3754252l3.9281568-12.9186082zm-11.20092055 14.2366112 2.51791075-8.5071105h9.9365619l2.3558135 8.4853253h9.1855113l-9.1260756-32.3509834c-.5403242-1.91164899-1.675005-2.79394854-3.6688013-2.79394854h-13.02721632v3.05537064h1.08064839c1.36161697 0 2.09645787.5446294 2.09645787 1.5848714 0 .6916793-.15129077 1.2689864-.69161497 2.8429652l-9.14228537 27.6835099z"></path><path d="m43.1070642 42.8187595v-32.4708019c0-1.69379724-.98339-2.69591524-2.6097658-2.69591524h-8.0778467v3.05537064h.5403242c1.3562137 0 1.9343606.5827534 1.9343606 1.966112v30.1452345z"></path><path d="m57.0690414 42.8187595v-32.4708019c0-1.69379724-.9995997-2.69591524-2.6151691-2.69591524h-8.0508305v3.05537064h.5403242c1.361617 0 1.9397639.5827534 1.9397639 1.966112v30.1452345z"></path><path d="m71.3930358 10.8599092c0-2.35824505-1.7344406-3.81240542-4.7062237-3.81240542s-4.7170302 1.4269289-4.7170302 3.81240542c0 2.3854766 1.7884731 3.8124055 4.7170302 3.8124055s4.7062237-1.4160363 4.7062237-3.8124055m-.156694 31.9588503v-23.6695916c0-1.688351-.9941965-2.6850227-2.6205723-2.6850227h-7.9481689v2.9954615h.470082c1.3562137 0 1.9343606.63177 1.9343606 2.004236v21.3549168z"></path><path d="m89.218331 30.1615734v5.1249622c-1.3670202 1.4214826-3.0312187 2.2928895-4.4414649 2.2928895-1.4102461 0-1.988393-.7298033-1.988393-2.7231467 0-1.9933435.4106464-2.8375189 1.8803282-3.4093798 1.4634032-.6004951 2.9896741-1.0316944 4.5495297-1.2853252m-11.0442265-6.1543117c2.5099012-1.2551065 5.2562528-1.9569122 8.0562337-2.0586989 2.2045227 0 2.9879928.7897125 2.9879928 3.0934947v.5881997c-3.3446068.5446293-4.3928357.7515885-6.2785671 1.1709531-1.0561847.2345053-2.0902592.5606839-3.0906544.9748865-3.3013809 1.3343419-4.8629178 3.9049925-4.8629178 7.8535552 0 5.0105901 2.1612968 7.4288448 6.5865519 7.4288448 1.5052692.0061213 2.9979416-.2766779 4.398239-.8333833 1.2701453-.5827313 2.4510174-1.3456849 3.506704-2.2656581v.3703479c0 1.6338881.8320993 2.467171 2.4584751 2.467171h7.4834901v-2.8157338h-.3674205c-1.4102461 0-1.9289573-.6372163-1.9289573-2.320121v-12.5537065c0-6.6934947-2.3071843-9.0245083-8.9585752-9.0245083-2.1086445.0105991-4.2093753.2608953-6.2623574.7461422-1.9396419.4360033-3.8080117 1.1474965-5.5491295 2.1131619z"></path><path d="m111.3338 42.8187595v-17.8202724c1.36702-1.5304084 2.771863-2.2220877 4.392836-2.2220877 1.734441 0 2.161297.6916793 2.161297 3.3440242v16.6983359h8.158895v-17.9183056c0-4.1718609-.297178-5.4898639-1.620972-6.9059002-1.080649-1.225416-2.771864-1.8462935-4.927757-1.8462935-3.193316 0-5.441065.9966717-8.461477 3.8450832v-1.0511346c0-1.6338881-.848309-2.4780636-2.517911-2.4780636h-7.753652v2.9954615h.470082c1.356214 0 1.939764.63177 1.939764 2.004236v21.3549168z"></path><path d="m150.247949 37.2853253h-11.384631l10.887533-15.3857792v-5.4462935h-17.074245c-1.934361 0-2.825896.8931922-2.825896 2.8484115v4.7927383h3.031219v-.4683812c0-1.2145235.626776-1.7918306 1.928958-1.7918306h5.86792l-11.001 15.5600605v5.4462935h20.532319z"></path><path d="m193.079448 42.1488654v-29.7966718c0-2.37458392-.837503-3.17518906-3.123074-3.17518906h-6.921553v3.34947046h.41605c1.577746 0 1.885731.3594554 1.885731 2.2765507v27.3458397zm3.414849 0h7.68341v-23.2066566c0-2.3310136-.891535-3.1697428-3.144687-3.1697428h-4.538723zm-14.550931 0v-26.3546143h-4.554933c-2.253152 0-3.13388.8387292-3.13388 3.1697428v23.1848715zm29.507104-15.1461423c0 13.1310137-9.369221 22.6783662-22.23434 22.6783662s-22.255954-9.5473525-22.255954-22.6783662c0-13.1310136 9.385431-22.67836607 22.255954-22.67836607 12.870522 0 22.23434 9.60181547 22.23434 22.67836607m4.54953 0c0-15.440242-11.460276-27.0027231-26.78387-27.0027231s-26.794677 11.5624811-26.794677 27.0027231c0 15.4402421 11.460276 26.9972769 26.794677 26.9972769 15.3344 0 26.78387-11.5189107 26.78387-26.9972769"></path></g></svg> 