<?xml version="1.0" encoding="UTF-8"?> <svg xmlns="http://www.w3.org/2000/svg" height="47" viewBox="0 0 224 47" width="224"><g fill="none"><path d="m0 0h224v47h-224z" fill="none"></path><path d="m8.01733333 39.31268v-39.31174h-8.01686666v46.95112h27.69993333v-7.63938zm158.66106667-5.88534c0-6.32197-2.7356-9.88833-7.521267-11.32935v-.12596c3.542934-1.50024 5.967267-4.69342 5.967267-10.14072 0-7.69954-4.538333-11.83037-13.6122-11.83037h-16.225067v46.95112h16.534934c10.566733 0 14.856333-5.07365 14.856333-13.52472m-8.0206-.56118c0 5.38244-2.2974 7.01052-6.649533 7.01052h-9.012267v-13.83351h8.701c4.910733 0 6.9608 1.94016 6.9608 6.82299m-1.242733-19.53132c0 4.32024-1.802734 6.2604-5.9668 6.2604h-8.3916v-12.39437h8.2054c4.2896 0 6.153 1.50024 6.153 6.13397m35.150733-13.3339-6.183333 31.23244-.868467 5.25789h-.1862l-.8092-5.32275-6.153-31.16758h-8.422867l9.945134 46.95112h10.070666l5.967267-30.78876.869867-5.7011h.1862l.8078 5.7011 6.027933 30.78876h9.820067l9.947-46.95112h-8.111134l-6.219266 30.97817-.868467 5.32463h-.1862l-.8092-5.25789-6.182867-31.04491zm-127.3668667 33.4264c0-6.32197-2.7356-9.88833-7.5212666-11.32935v-.12596c3.5429333-1.50024 5.9672666-4.69342 5.9672666-10.14072 0-7.69954-4.5383333-11.83037-13.6117333-11.83037h-16.2241333v46.95112h16.534c10.5681333 0 14.8558666-5.07365 14.8558666-13.52472m-8.0187333-.56118c0 5.38244-2.3006667 7.01052-6.6509333 7.01052h-9.0127334v-13.83351h8.701c4.9107334 0 6.9626667 1.94016 6.9626667 6.82299m-1.2427333-19.53132c0 4.32024-1.8027334 6.2604-5.9672667 6.2604h-8.3925333v-12.39437h8.2063333c4.2882 0 6.1534667 1.50024 6.1534667 6.13397m66.3950003-13.3339h-46.6032003v9.3624h46.6032003zm0 18.77791h-46.6032003v9.36052h46.6032003zm0 28.17321h-46.6032003v-9.36381h46.6032003z" fill="#123250"></path></g></svg> 