<?xml version="1.0" encoding="UTF-8"?> <svg xmlns="http://www.w3.org/2000/svg" height="120" viewBox="0 0 71 120" width="71"><path d="m29.4287196 48.030725c-6.1258948 0-12.2517896-.0067225-18.3776843.0132282-.4638423.001518-.6133074-.0665745-.6117845-.5627385.0174049-5.8891291-.0513447-11.7793424.0343748-17.6673871.0480812-3.3191814 1.5871152-5.8908639 4.6127507-7.4058123.8534959-.4272042 1.8534111-.5777015 2.7987182-.8025801.3800809-.0904285.7936664-.0513946 1.1920225-.0516115 10.9470699-.0023854 21.8941398.0041203 32.8412097-.0075899 2.6651351-.0028191 4.855985.9886416 6.5903897 2.9860923 1.2612072 1.4524942 1.7770469 3.203164 1.8993167 5.0761399.061135.9352953.0089201 1.8779636.0080498 2.8173791-.0002175.4332761-.1705686.6731177-.652251.6384209-.3605003-.0258058-.7244816.0043371-1.08694.0043371-11.7444348.0004337-23.4888696.0002168-35.233522.0004337-1.4509214 0-1.4348218.0004337-1.3856527 1.4136772.0339396.9743291.0256723 1.9508268.015882 2.9260234-.0045688.4495403.1659998.6735514.6354988.6492636.2891399-.0151798.5798028-.0004337.869813-.0004337 11.816883.0010843 23.633766.0013012 35.4508665.0039034 1.4037104.0002169 1.3971835.0056382 1.3960957 1.3507893-.0041336 5.5280656-.0032634 11.0559143-.0058741 16.5839799-.0013054 2.6265468-.9107148 4.8610199-2.9242516 6.5960761-1.3212544 1.1384883-2.8452766 1.8393634-4.6110102 1.908757-1.5557862.061153-3.113313.1053914-4.670187.1071263-8.8808831.0097585-17.7617661.0095416-26.6426492-.0004337-1.3029791-.001518-2.6146608.007619-3.9071969-.130113-2.3940529-.2561056-4.2650865-1.4700595-5.6822858-3.3896592-1.0458208-1.4164963-1.4269895-3.0561364-1.52511-4.7714588-.0472109-.8283858-.0239318-1.6617592-.0069619-2.4923136.0160995-.7828462.0308938-.7871833.785399-.8006283.5798028-.0101922 1.1598233-.0091079 1.7398437-.0091079 11.3819764-.0004337 22.7639529-.0004337 34.1459293-.0004337.2536773 0 .5075723.0043371.7612496-.0008675.8367437-.0173483.8474042-.0184326.8543662-.8400959.0095727-1.1198388.0106605-2.2401113-.003481-3.3599501-.0095727-.7485832-.0308938-.7572574-.8182509-.7845811-.2534598-.0088911-.5075722-.0017349-.7612496-.0017349-5.9085503 0-11.816883 0-17.7254332 0zm-2.2760907-39.80059756c-.1686106-4.57672306 3.9019754-8.4011764 8.5886972-8.22422279 4.3623367.16459289 8.0630673 3.7938768 7.9605955 8.45083618-.0926814 4.21804507-3.6143584 8.11948187-8.4024641 8.01582517-4.803335-.1040903-8.2791064-3.9222549-8.1468286-8.24243856m-11.0260537 77.33979116c0 .3092639.0095056.6189258-.0037225.9275926-.0074449.1735089.052713.2882968.1853263.395587.2531286.2048268.5251355.3707717.8475288.4256443.7403082.1258686 1.3786469-.0912332 1.7242393-.7889182.0681346-.1374801.1200499-.2855101.1598007-.4338718.1974243-.7379603.1915083-1.4845463.0734525-2.2329901-.0450686-.2855764-.1524223-.5489252-.2953389-.802852-.3890656-.6908508-1.4417296-.7741881-1.9589548-.2841167-.4192443.3972459-.5992527.897071-.6683845 1.4408207-.0569008.4470094-.060025.900853-.087013 1.3517108.0077109.0004644.0153553.0009289.0230661.0013934zm-1.2028926-3.6545689c0-.0773658.0003323-.1547978-.00037-.2321636-.0008266-.0899061.0346699-.1536035.1316538-.1545987.3100294-.0032513.6200588-.0025878.9300881-.0027205.1112756 0 .113868.0761715.1147322.1594425.0021936.2099358.0081761.4197389.0143581.6296084.0005982.0209007.0124969.041536.0192106.062304.024595-.0134693.0574991-.0208343.0724554-.0413369.182601-.2502775.3824848-.4773984.6555553-.6402911.839552-.5006876 2.1519255-.4237864 2.8759477.4341373.3345579.3963832.5262656.8642933.6283679 1.3678341.2006815.9895648.1938348 1.9799259-.0858165 2.9508459-.1905111.6612581-.53843 1.2436907-1.1630754 1.5908413-.2556546.1421247-.549664.2565808-.8374914.2916144-.650038.0790245-1.3050614.0902379-1.8840399-.3086668-.0361613-.0249481-.0775739-.0429957-.1182552-.060247-.0926632-.0393464-.1526217-.0153936-.1534858.0928919-.0016619.1989215.00113.3979094.0013959.5968973.0009971.6523006.0027918 1.3046012.0019942 1.9569019-.0003989.3328186-.002526.3334821-.3198674.3358044-.1883175.001327-.3766351.0017251-.5648862-.0001327-.3148819-.0031185-.3168096-.0039811-.3179397-.3056809-.0017283-.4533128-.0003988-.9066256-.0003988-1.3599383 0-1.017167 0-2.034334-.0000665-3.0514347-.0000664-1.4373041-.0000664-2.8746081-.0000664-4.3119122zm-2.3355635-2.8018074c.1431161.0366923.2083924.0755742.2024099.2309692-.0101704.2648748-.0021936.5304795.0001329.7957524.0011965.1356222-.0519153.1758312-.1856586.1311104-.48359-.1617648-.9797434-.2682588-1.4873965-.3198802-.3649359-.0371567-.7330626-.0558678-1.0879611.0437256-.23026195.0646263-.46830122.1496888-.66300019.2833869-.64618256.4438245-.70534339 1.6094859.10635656 2.070031.45626963.2589032.94730453.4214641 1.42138893.6306037.4239638.1870446.8582974.3611507 1.2552732.596101.664795.3934638 1.0471468.9801429 1.1268478 1.7700564.0546406.5412947.006049 1.052665-.1977568 1.5562058-.1677774.4146299-.4583967.718453-.8146247.9723134-.4756797.3388566-1.0238148.4738817-1.5894323.5176737-.95833904.0742472-1.89899631-.0363606-2.8075472-.3667906-.041612-.0151281-.08362284-.0292609-.12476954-.0455834-.34113865-.1352241-.34206927-.1356886-.23351911-.4768675.05012053-.1573855.09698388-.3164962.15960131-.4689717.09698388-.236211.09857923-.2216137.33582083-.1545988.47813919.1350251.95514835.2840504 1.44259375.3730276.49136729.0897071.99317086.0701998 1.48154686-.0646926.8808317-.2433106 1.326798-1.2294915.9058255-2.0417654-.1773496-.3423069-.4837229-.5738069-.836162-.727145-.5676781-.2468936-1.14426359-.4733509-1.71114404-.7219696-.58695525-.2575098-1.09500722-.6062528-1.40284298-1.2012922-.1792108-.3463543-.23624451-.7126804-.24515187-1.0863051-.01056918-.446744.09346083-.8742461.31428363-1.2708284.3065063-.550584.78025829-.8857249 1.36349106-1.0909498.45607021-.1604377.9249032-.2159074 1.41986-.1903622.6233824-.0293273 1.2383227.0996599 1.8515347.2570454zm20.9552331-.3544028c.0001329-.2899556.00226-.2920788.2916163-.2956618.243623-.0029858.4875119.0039147.7310684-.0017915.138463-.0033176.2082595.048901.2048029.1908266-.0021936.0884465.0003988.1769592.0003988.2654056.0005318 1.5922346.0000665 3.1844692.0035895 4.7767038.0001995.1034419.0313752.2068174.0481929.3102592.0840881-.0670813.1788784-.1244752.2506026-.2028362.6108855-.6677605 1.2223692-1.3351229 1.8226855-2.0123054.1746242-.1969309.3606152-.2949319.6302955-.2725052.2749982.0228913.553453.0025877.8303789.0061044.0600914.0007298.119917.0225594.1798755.0347017-.0319735.0563324-.0546407.1212241-.0974492.1676037-.1864564.201841-.3817536.3955207-.5684758.5971626-.5776491.6237695-1.153171 1.2494633-1.7288258 1.8750906-.2075283.2255285-.2049358.2248649.0136269.4458815.6774913.6850118 1.2739521 1.4369723 1.8245467 2.2252933.2587123.3704399.5022689.7514296.7487502 1.1302298.0397507.0611096.0590943.1354895.0878106.2037651-.0710595.0122087-.1421189.0345028-.2133114.0348345-.3098299.001327-.620391-.0177822-.9292239-.0015261-.2120484.0111471-.3349567-.0636973-.4601915-.235083-.5590367-.7652971-1.1309026-1.521504-1.7108782-2.2712748-.1816703-.2349503-.4026925-.4396444-.6065647-.6574097-.0214708-.0228913-.0485917-.0405407-.0730537-.0605789-.0223349.0362279-.0634816.0722567-.0638139.1086836-.0019942.1865802.0103697.373293.0107686.5599395.0016618.7408134.0007977 1.4816932.0005982 2.2225066-.0000664.0552707-.0008641.1106078-.0033901.1658122-.0047196.1058968-.0580308.1604376-.1673121.1611012-.3101624.0017914-.6203247.0103508-.9302211.0029194-.0422767-.0009953-.1067554-.0718586-.118654-.1206932-.0204736-.0836691-.0084421-.1755658-.0084421-.2639459-.0001994-1.5037881-.0001329-3.0076427-.0001329-4.5114309 0-1.5259495-.0003988-3.0518327.0003324-4.5777823zm9.7624949 7.1277994c0-.2321635.0031242-.4643934-.0008641-.696557-.0040549-.2372726-.0120316-.2574434-.2383717-.2482206-.4191777.0171187-.8418121.0266069-1.2553397.0895081-.9037648.1373474-1.1866733.7932973-1.0631003 1.565694.0688659.4302888.3402745.7072396.7888998.7788328.0871459.0139338.1752224.0266732.2632325.0297917.5251355.0187111.9648534-.1966655 1.372199-.5016829.1098796-.0822758.1365352-.1929499.1352058-.320809-.0023931-.2321636-.0006648-.4643935-.0006648-.6965571zm1.1927888-.1948077c0 .7515624.0017948 1.5031247-.0009306 2.2547534-.0009971.2768844-.0077109.2807991-.2753306.2841167-.2213545.0027204-.4428421-.0018579-.6642631.0011943-.1460409.0019242-.2377734-.0433938-.2192275-.2103339.0048525-.0433939.0055837-.0885792-.0007312-.1316412-.013494-.0911669-.0517823-.1476982-.1524887-.0834701-.046398.0295927-.0920649.0603798-.1373329.091764-.6995603.4852278-1.4678534.5776553-2.2796199.383113-.5906112-.1415939-.9666481-.5349914-1.1327638-1.09931-.2242129-.7619795-.1881181-1.5089636.2843709-2.187075.1869881-.2684577.4477611-.4551042.7400422-.5963.5590367-.2700502 1.1564281-.3622787 1.7709696-.3710371.2213546-.0031848.4427757-.011147.6640638-.0094882.1563441.0011943.2244123-.0691382.2103201-.2222772-.0192107-.2081444-.026988-.4182129-.0611551-.6239022-.0649439-.3910089-.320665-.6211155-.6872627-.724491-.4780728-.1346934-.9673794-.1059632-1.4487093-.0275358-.303515.0494318-.5973915.1567883-.8961869.2358792-.1625261.0430621-.2017451.0195073-.2072624-.146902-.0070461-.2097368.0008642-.419938.0013295-.6299402.0003324-.1425892.0678688-.2015092.2107854-.2427134.7644377-.2202204 1.5429013-.2920126 2.3320005-.2309029.4215043.0327112.8356966.137082 1.1883351.3777385.2965353.2024381.5281267.4834363.610686.841004.0741172.32061.1322145.6511727.1421854.979015.0212049.6956281.0064479 1.3923841.0064479 2.0887421zm-18.8744866.207932c0-.253595-.0035896-.5073228.0014624-.7607851.0027254-.1369493-.0479269-.2104003-.1913753-.2001159-.4613216.0331094-.9280275.0342374-1.38217.1104088-.4018283.067413-.7567934.2731023-.9042966.6901873-.1241048.3509989-.1282926.7215051-.0033236 1.0713097.1042958.2920125.3205985.4844979.6447201.5513801.6310932.1301815 1.1735781-.0629674 1.6743181-.4263077.1130703-.0820767.167711-.1926181.1606649-.3416434-.0108351-.2309692-.0028584-.4628674-.0028584-.6944338zm1.1932541 2.0285615c-.0005983.2997756-.0029248.3005718-.3144166.3025624-.2103201.001327-.4206402-.0019242-.6308938.0002654-.1164604.0012606-.1930372-.0329767-.1888494-.1670729.0021272-.0660196-.00113-.1327691-.0086414-.1983907-.0096386-.0843989-.0590279-.1177737-.1370006-.0769012-.0582302.030588-.108816.0752425-.1643209.1113376-.7705532.5006213-1.5896981.6373716-2.463949.3139749-.5448779-.2015756-.8459335-.6276843-.9848617-1.1643345-.1142669-.4414358-.1140674-.8937533-.0029913-1.3427533.170237-.6879313.6097554-1.131225 1.2529467-1.3919197.5307192-.2151112 1.0881605-.2820598 1.6559716-.2901547.2097218-.0029858.4201749-.0035166.6284343-.0241519.057632-.0057062.1523558-.0769676.1552806-.1228164.0209389-.3305627.0444703-.6684241-.124836-.9723798-.2027422-.3640702-.5510599-.5008868-.9405908-.5294179-.6227177-.0455834-1.2357303.0157917-1.8304629.2220782-.3559621.1234136-.3576903.1189017-.3590198-.2515382-.0005983-.1546651.0027919-.3094629-.0011965-.4639954-.0033237-.1282572.0478604-.2111301.17489-.2437087 1.0080608-.2585714 2.0192458-.3896817 3.0431935-.0839345.6453849.1926181 1.0230836.6335896 1.1671303 1.2756721.0502534.2240687.068467.4589526.0713918.6892583.0088409.7070406.0031907 1.4142138.0031907 2.1212544 0 .7623776.0009971 1.5246889-.0003988 2.2870665zm34.0521855-3.5629708c.3864731 0 .7729463.0023223 1.1594194-.0009289.2247447-.0018579.2578482-.0221614.2589782-.237339.0023266-.4311514-.020806-.8662839-.2442212-1.2486007-.0964521-.1650823-.2356463-.3377286-.3993024-.4252461-.5300545-.2832542-1.3676789-.2113292-1.7584728.357435-.2839055.4131702-.3866725.8792224-.435663 1.3646493-.0144246.1429872.0505858.1931489.1937019.1907603.4084092-.0068342.8170178-.0023887 1.2255599-.0023887zm-1.0979985.9196304c-.25951-.0014597-.335555-.0291946-.2785213.3051501.0545742.3198138.1380641.6227743.2787207.912929.235048.4849624.6338851.7469177 1.1511768.8516866.4974163.1007877.9895813.0453843 1.4806827-.0461143.1084837-.0202371.2171003-.0420004.3235233-.0707969.1402577-.0378867.2089242.026806.2394352.1532054.0491899.2036324.0979145.4073976.1449108.6115609.0271209.1177073-.0148899.1927508-.1398588.2140496-.3263817.0558015-.6506363.1371483-.9793445.1638879-.6851357.0557352-1.371069.0710624-2.0260924-.2014428-.5943338-.2472917-1.0373088-.6567462-1.3314512-1.2277664-.5378318-1.0443047-.5365023-2.1444109-.3289741-3.262233.0811633-.436924.2479437-.845715.5022688-1.2125055.4770092-.6881304 1.1297726-1.0675277 1.9754401-1.1028267.3668637-.0152608.7287419.0033176 1.0837069.1071575.6740347.19713 1.1128884.6416181 1.3870889 1.2759375.2145744.4966402.2824431 1.0194229.3066393 1.5497697.0115662.2519363-.0270545.5057304-.0249938.7585956.0014624.1808739-.082094.2349503-.2445536.2213483-.0549731-.0046446-.1106109-.0005972-.1659827-.0005972-.553453 0-1.1069059 0-1.6603589 0-.5644874 0-1.1289748.0022559-1.6934622-.0009953zm-3.6087578-3.7018442c.17376.0433938.2418947.1243425.2354469.2959936-.0073785.1986561.0023265.3979757-.0049855.5966318-.0062485.1693288-.0362277.1833289-.2042046.1528736-.412464-.074778-.8231998-.1729781-1.2391868-.2091396-.3263152-.0283321-.6629337-.002256-.9885842.0441237-.341604.0486355-.5737272.3237285-.6164028.6517034-.0437391.3360699.0781721.6089732.4032908.7616478.3585546.1683998.7338603.3038894 1.1085012.4349998.4179148.1463048.8343007.2888276 1.2056846.5401004.3661324.2476234.6050358.5762619.6874621 1.0109963.0836894.4416349.0699295.8786253-.0979809 1.3013501-.2260077.5690959-.6737023.8932889-1.2389874 1.0590347-.6796184.1991869-1.3749244.1940115-2.0716928.0964749-.3953805-.0554034-.7843132-.1342288-1.1501133-.301368-.2028751-.0926929-.215372-.1137927-.1508268-.3261172.0545742-.1794142.1193852-.3557098.1780807-.5338634.0429415-.1302478.1153304-.1628263.2527963-.1175746.2829749.093091.5691405.1819355.8599592.2450357.4917661.106693.9893819.1110059 1.4837404.0091565.493295-.1017167.7329297-.3711034.745493-.829658.0077109-.2834531-.0767761-.5357212-.3418034-.6692202-.314483-.1583808-.6406653-.2954628-.968177-.4258433-.4507524-.1794805-.9147329-.3173588-1.3384973-.5705557-1.0446208-.6240349-.8973834-2.1524395-.2765935-2.7550429.4119323-.3998336.9056926-.5743378 1.4538277-.6406228.1417201-.017185.2872956-.0025877.4311429-.0025877.5541841-.0053081 1.1022527.0465123 1.6426105.1814711zm-5.9650939-.0097736c.2809807.0728538.2811137.0800861.284105.3541174.0021936.1988552-.0008642.3977103-.0035231.5965655-.001263.0990626-.0555713.1394706-.1508934.1183045-.0645451-.0143319-.1268966-.0383511-.1909765-.0548062-.6362116-.1636889-1.2784722-.253396-1.9351575-.1502196-.3190032.0500953-.6112843.1597078-.7191698.4970384-.1616619.5055976.0089739.7696099.3933199.9620289.3339596.1672056.6969678.2758892 1.0452855.4151608.3373497.1349587.6761618.2673298 1.007396.4162223.4968181.2234052.8108358.6112955.9064238 1.1436328.1361364.7574676.0295139 1.4577403-.6110849 1.979196-.3805571.3097283-.8370926.4363268-1.3162289.4925264-.7789953.0914323-1.5510774.0396118-2.2941774-.2048268-.6380064-.2098694-.5987209-.1329018-.3825512-.7288701.0482593-.1331009.0739843-.3464207.1605984-.3761461.1189864-.0408725.2890239.0497635.43214.0985982.6836067.2335569 1.3787798.3039558 2.0904381.159376.5125721-.1041053.7611806-.4316822.7255511-.9398012-.0168176-.2387324-.1172581-.4384501-.3212632-.5483944-.2799837-.1508167-.5767185-.2723725-.8718579-.3928666-.388135-.1583808-.7843796-.2969889-1.1724481-.4555024-1.3860918-.5663092-1.2665737-2.4669451-.3160784-3.1184495.3926551-.2691213.832373-.3954544 1.2998101-.4390473.1096802-.0102181.2211551-.0015261.331766-.0015261.542219.0019242 1.0817126.0409389 1.6085764.1776891zm-21.3139138.2172478c.0003988-.2646094.0045201-.2658701.2762611-.2681261.2212881-.0018578.4426427.0034503.6637979-.0014597.1380641-.0030522.2017451.0508252.203141.1929499.0020607.2201539.0163523.4401088.0229996.6601964.0013295.0437256-.0178147.089309-.0108351.1312431.0085086.0514224.0344994.0999252.0529789.1496888.0358289-.0329103.0765102-.0619722.1067554-.0995271.165185-.2050922.309697-.4303552.4950233-.6149448.4070132-.4054071.9211807-.4879482 1.4720412-.4320804.1301538.013204.1655839.0832047.1647862.1985234-.0019277.2760219-.0017948.5520437.0007977.8280655.001263.1303142-.0640799.1632908-.1861905.168599-.2518656.0109479-.5129045.0034502-.7526056.0683419-.6541593.1768928-1.0382394.6449356-1.2266234 1.2726863-.0654758.2181634-.0852847.456564-.0873453.6860071-.0092398 1.0380013-.0045867 2.0761354-.0051849 3.1142031-.0000665.0883137.0009306.1768265-.0038555.2649411-.0049854.0926929-.0531782.1327692-.1512922.1301815-.2763276-.0072323-.5531205-.0138675-.8293817-.0066352-.1614625.0042465-.2110513-.0599816-.2085253-.2144477.0069796-.4195399.0021936-.8392125.0021271-1.2588852 0-.6294757 0-1.2589515.0001994-1.8884272.0001995-1.0270534-.0008641-2.0540404.0009307-3.0810937zm-28.72733204 16.1312581c.02984631-.7277421.0817616-1.4547544.13174918-2.1815014.02638973-.3847054.06594107-.768681.10761955-1.1520594.02266724-.2085424.0408808-.2249976.24515186-.2285142.34319931-.0058389.68666452.0028531 1.02986384-.0030521.16079781-.0027868.23604508.0746453.28543441.2184288.5234072 1.5235609 1.04980569 3.0461265 1.57740068 4.5682277.19862087.5732097.40043244 1.1454242.60609943 1.7161122.02698798.074845.0856835.138277.12968853.207017.0394184-.074646.08914009-.145642.11672632-.224401.35383497-1.0103324.70640696-2.0211297 1.05538941-3.0331213.36693012-1.063812.72914067-2.1292828 1.09440897-3.1936257.08216044-.2391968.11300384-.2649411.35117606-.2657373.32106385-.0010617.64219418.0017251.96305862.0104171.2247447.006038.23252202.0157917.24641485.2522681.03576239.6057883.06607401 1.2119747.1018364 1.817763.03370174.5714182.08036567 1.142173.10542594 1.713923.03775658.8599142.06447866 1.7203592.09080191 2.5807381.03064398 1.004494.05663487 2.009187.08262575 3.013813.00578314.224002-.01402577.244571-.23810574.248221-.25465748.004114-.50944791.00418-.76410539-.000597-.20972184-.003982-.2132449-.008162-.21756563-.229444-.0093062-.475076-.01130039-.950284-.02200252-1.425294-.02147073-.949754-.04154553-1.899508-.07199009-2.8489302-.02904864-.9049668-.07059417-1.8095355-.10655598-2.7142368-.00086414-.022095.00352306-.0452517-.00172829-.066086-.00757791-.0301236-.02167015-.058522-.03303701-.0877166-.03323642.0235548-.08475288.0400763-.09685094.0716595-.10236818.267927-.19988385.5377781-.29454119.8086246-.28390553.8120748-.56581688 1.6248131-.84845943 2.437286-.33010416.9488915-.65967654 1.8979815-.99064486 2.8465415-.10117167.290022-.10309938.295728-.4198425.289823-.71172479-.013204-.55119286.118238-.77959357-.534262-.65229806-1.863611-1.29781588-3.7295455-1.94612557-5.5945507-.00724554-.0209007-.01349399-.042863-.02512674-.0612424-.04905696-.0780956-.09997516-.1549968-.15022863-.2322962-.02014128.0908351-.055106.1812057-.0580308.2725715-.03469883 1.0817933-.06813467 2.1636529-.09472381 3.2457118-.0279186 1.137396-.0479934 2.27499-.07179068 3.412452-.00139593.066219.00013295.133101-.00884088.198457-.02738682.200116-.03755716.210268-.25226446.213387-.24362299.003583-.48737893.004578-.73093544-.000332-.24741194-.004977-.25100148-.008759-.25272977-.269254-.00292481-.453114-.00079767-.906294-.00079767-1.463978.04865812-1.375132.09512264-2.8545032.15574588-4.3332106zm51.82512564-3.7602069c0-.4135019-.0067952-.3734257.3825363-.3760134.2325885-.0015924.465177.0022559.6977655.0019242.1081513-.0001327.1625925.0396781.155347.1586462-.0067138.1097452.0081762.2205521.0081762.3309608.0007312 1.5920355.0005317 3.1841374.0003323 4.7762393-.0000664.0883801-.0095056.1773573-.0023265.2650739.0076444.0931574.0298463.1851204.0457333.2776143.0737849-.059849.1565436-.1116031.2200916-.180874.6490409-.7079694 1.3025355-1.4120905 1.9372182-2.1327331.1992856-.2262583.4060826-.3431695.7129878-.3176242.2859662.0237538.5755884.0019242.8634823.0067679.0464645.0007962.0923972.0359624.1385959.0552707-.0183465.0372895-.029381.0813468-.0563025.1109395-.2077942.2283816-.4193772.4532465-.6283679.6805664-.6053017.6584713-1.2108694 1.3167436-1.8143764 1.97694-.1866557.2040969-.1843956.207414.0044537.395255.7929546.788454 1.4806162 1.662236 2.1034668 2.588369.2279354.339055.455472.678443.6788872 1.02055.1165934.178618.1123391.186116-.0864147.18804-.3876696.003716-.7755387-.005839-1.162876.005574-.1536187.004512-.2448195-.056133-.3295059-.172978-.4791363-.661325-.9514259-1.328156-1.4497063-1.975016-.3092317-.401426-.6594772-.771468-.9935032-1.153718-.0345659-.039546-.0840882-.066086-.1266308-.098665-.0220025.059186-.0628168.118238-.0630163.17749-.0013294.519465.0075115 1.03893.0073785 1.558462-.0001994.464062-.0063814.928123-.0129622 1.392185-.0037225.261358-.0064478.26514-.2510679.267662-.2657585.002786-.5317163-.007498-.7973418-.00219-.1286915.002588-.1816703-.046512-.1793438-.172845.0028584-.154666-.0025259-.30953-.0025259-.464261-.0002659-1.492575-.0001845-2.98515-.0001845-4.4777246 0-1.5699405.000118-3.1399474 0-4.7098879zm-37.8370116 7.3576735c0-.264078.0033902-.52829-.0011965-.792302-.0031242-.17875-.0407478-.230173-.2092565-.21949-.4827258.030654-.9700383.045318-1.4449868.127461-.4268886.073849-.7846455.309529-.9512264.736766-.1136021.291216-.1210471.599087-.0542419.909545.0939262.436791.3495143.711088.7875039.779032.6340845.098266 1.2003002-.07166 1.6979824-.474612.1093478-.088513.1644538-.191092.1571418-.339387-.0118986-.241785-.0031907-.484631-.0031907-.727013zm1.2246958-.18784c0 .79615.0011965 1.5923-.0006647 2.388451-.0005983.257311-.0041878.261159-.2480102.266334-.243623.00511-.4875784-.004246-.7310019.00365-.1503616.00491-.2345162-.039015-.2198922-.203699.004919-.054806.0044537-.110807-.0008642-.165613-.0151558-.156125-.0520482-.177424-.178546-.088115-.432273.30515-.9042967.512565-1.4326229.570025-.6114837.066551-1.1860085-.017583-1.6945258-.408592-.2400999-.184589-.404022-.426241-.4980811-.688661-.2931452-.81798-.2807813-1.627069.2227506-2.374849.3249857-.482574.8109022-.7357048 1.3596356-.8792892.5599008-.1465039 1.1315673-.1981253 1.7094822-.1891015.1106773.0017251.2250771.0134693.3307025-.0104835.0576984-.0130712.1441131-.0923612.1428501-.1397361-.0065143-.2413864-.0210719-.4850287-.063548-.722434-.0763773-.4273694-.3519073-.6661018-.7691574-.7702735-.3719156-.0929583-.7479525-.1160486-1.1202669-.0547399-.4020278.0661524-.7990036.167471-1.1939853.2696521-.2722063.0704652-.2696138.0827402-.2712092-.2128553-.0010636-.1879735.0043207-.3761461-.0013295-.5639205-.0045866-.1549306.0493894-.2245995.2133779-.2719081.7652354-.2209502 1.5455602-.2904864 2.3340611-.241121.4413797.0276022.8872131.1152524 1.2657095.3549137.4166518.2637468.6885922.6583386.7594523 1.1539172.0529124.3701745.0763108.7465196.084354 1.1207415.0132946.6189921.0035896 1.2384491.0035896 1.8577071zm25.6309331.209896c0-.242515-.0033901-.485029.0009307-.727411.0045866-.259301-.0485917-.319946-.3013215-.309795-.2759952.011081-.5541176.010418-.8269887.047176-.2715415.03656-.5437479.094219-.8044544.177557-.2687497.085991-.4932285.260827-.6146079.520924-.173893.372564-.1998839.770075-.077175 1.161216.1146657.365796.3765022.599883.7617788.651903.619394.083669 1.1838815-.061773 1.6775088-.455171.1097467-.087451.1716994-.188703.1655174-.33806-.0101038-.242382-.0027254-.485493-.0027254-.728339zm1.2272882-.270183c0 .806435.0013229 1.61287-.0006647 2.419238-.0006647.294202-.0041878.295861-.2932117.298581-.2434901.002323-.4870466-.003251-.7304037.001726-.1288244.002654-.17489-.05202-.1755548-.177358-.0005318-.119565-.0216036-.239064-.0336352-.358563-.1019029.061906-.2043376.122883-.3055092.185983-.784845.489143-1.6118337.633922-2.5000439.31497-.5185546-.186182-.8339683-.568432-1.0074624-1.066598-.2271378-.6525-.1734277-1.312498.0729207-1.944627.141853-.363805.4219031-.63923.7604494-.848967.4911678-.3042207 1.0326556-.4406392 1.6002673-.4834358.385609-.0291283.7728798-.0359625 1.1593529-.0541428.2083924-.00982.2201581-.0228249.2159703-.2359456-.0021271-.1103424-.0106356-.2204857-.0136269-.3307617-.0174159-.6405565-.3541673-1.0249965-.9946332-1.1147036-.4631828-.0648253-.9280275-.0602471-1.3846959.0490337-.2998591.0717922-.5951979.1632245-.8902709.253197-.0822269.0250808-.1290903.0203698-.1298215-.073252-.0021936-.2761545.0006648-.5523091-.0025924-.8283972-.0013959-.1160486.0776403-.1507504.1652515-.1731109.2246118-.0573939.4484258-.1212903.6762948-.161831.6895228-.1225511 1.3834993-.1561912 2.0784065-.0508252.3631412.0550717.7093982.1675373 1.0060001.39426.5384301.4116441.7126554.9916881.7223604 1.6326426.0119651.7841409.0028584 1.5686135.0028584 2.3528875zm18.6935343-1.3594942c.4314752 0 .8629505-.003782 1.2943593.0019906.1568759.0020569.2284007-.0584556.2111177-.2147132-.0350976-.3166952-.0434732-.6399592-.1173245-.947498-.0493229-.205623-.1641215-.4117768-.298862-.5778544-.4618533-.5691623-1.5902299-.5692286-2.0885769.1422575-.3089658.4410377-.4193107.9405974-.4536107 1.4658351-.0102368.1569875.0865477.1468357.1926383.1463049.420042-.0023887.8401504-.0009953 1.2602588-.0009953 0-.0051091 0-.0102181 0-.0153272zm.6821443.9660762c-.6199922 0-1.2400509-.00126-1.8600432.000664-.2385046.00073-.2632989.00836-.2361116.238865.0914002.774586.3285089 1.476119 1.1207987 1.812786.2176321.092494.4684342.127926.7072711.145907.4879772.036693.970836-.026474 1.4491081-.13111.3015209-.065953.3017868-.057593.3659331.231434.0406149.183063.0863482.365065.1300209.547465.0286498.119698-.0150894.191225-.1380642.215111-.2601747.050494-.5178234.126134-.7803247.150021-.8162201.074446-1.6329055.139139-2.4156233-.212325-.5877529-.263946-1.0293321-.677713-1.3260669-1.242562-.4072791-.77525-.5141674-1.608823-.466307-2.472785.0339012-.6116268.1411219-1.2040121.4030914-1.761961.4323394-.9206921 1.1417376-1.4710106 2.1660177-1.5687462.4855842-.0463133.9682435-.0234221 1.4377412.1574518.6436566.2479552 1.0508693.7157326 1.2982148 1.3344594.2504032.6260919.3029167 1.2862883.2859662 1.953651-.0047196.185916-.019676.371568-.0299793.557352-.194566.014929-.3889991.040408-.5837645.042796-.5091821.006038-1.0185635.002057-1.5278785.002057zm-17.2477032-3.5420964c.0005982-.3626767.0039219-.3634066.3541008-.3656626.2103201-.001327.4207732-.0036493.6310268.001128.2189616.0049764.2251435.0079622.2414959.2180971.0145575.1870446.0118321.3753499.0200748.5629253.0013959.0313178.0196094.0619058.0300457.0928256.0337682-.0221614.0732531-.0388819.1003075-.0673467.1201163-.1267312.2306608-.2628842.3554968-.3845727.6288996-.613087 2.0275548-.7883874 2.881465-.221481.3816206.2533297.6413965.6118263.7446289 1.0567788.0741837.3197474.1298879.6515708.1328792.9785505.013494 1.4807641.0053178 2.9617941.0048525 4.4426911 0 .066285-.0031242.132636-.0008641.198855.0033236.095944-.0374907.138807-.1367347.138409-.3431328-.001526-.6862657.001194-1.029465.002853-.1131368.000597-.106423-.064228-.1059577-.153736.0069796-1.447589.0153552-2.895244.0055837-4.3427658-.0017948-.2711119-.0512506-.5508494-.1314168-.8103497-.12005-.3886865-.4059497-.6024044-.8150236-.6874669-.6997597-.1455086-1.2988795.1925518-1.656304.7163298-.2638307.3866296-.3676613.8212976-.3668636 1.2858238.0020607 1.1935958.0052513 2.3871908-.0006647 3.5807198-.0022601.457957.0592273.400961-.4080769.410251-.2212881.004445-.443108-.007631-.6641302.001725-.1453096.006104-.1918406-.047242-.1891817-.1895.0071791-.375615.0021271-.751429.0020607-1.127177-.0000665-.729401 0-1.458802 0-2.188203 0-1.0498785-.0011301-2.0998231.0006647-3.1497014zm-23.2001673.0875839c0-.0884464.0056501-.1770919.0011965-.2652729-.007445-.146902.0667387-.1907603.2030745-.1879736.2767265.0056399.5537853.0059053.8305783.0005309.1445784-.0028532.1848609.0561996.1888493.1979925.0062485.2240687.0430079.4472748.0668052.6708127.1540841-.1561248.2968678-.3256527.4643129-.4658532.5291238-.4429619 1.1527721-.5844895 1.8282692-.5298159 1.0038065.0813468 1.6491913.6349165 1.8279368 1.6112774.0513835.2809982.0818281.5697595.0835564.8551369.0086415 1.4482517.0052514 2.8965037.0047861 4.3447557-.0001995.399834.0192771.324724-.340341.332819-.2434901.005441-.4875119-.009422-.730736-.00073-.151824.005375-.1930372-.062702-.1887829-.197594.0045201-.143452-.0021272-.287302-.0021936-.431019-.0002659-1.271359.0023265-2.542718-.0017948-3.8140776-.0010636-.3428377-.0320399-.6810971-.1893147-.9991858-.1262319-.2553865-.3222603-.4243172-.5855593-.5029436-.6272378-.1873764-1.1765029-.0472422-1.6380239.4229902-.4039555.4115777-.5546495.9209575-.557109 1.4783756-.0057831 1.2933882-.0038554 2.5869082.0051849 3.8802302.0009971.137414-.0284504.170656-.1586707.167139-.2987954-.007962-.5979897.000597-.8969181-.004114-.2071294-.003251-.2113172-.008095-.2127131-.228846-.0033237-.508517-.0021936-1.017034-.0024595-1.525618-.0002659-.574868-.0000665-1.149737-.0000665-1.724605 0-1.0281152-.0000718-2.0562965.000133-3.0844115zm44.385968-.0417417c.0000665-.0883801.0040549-.1767601.0042543-.2651402.0001994-.0938872.0438721-.1438498.139593-.1439825.2988619-.0001991.5977238.001327.8965857-.0007963.134674-.0009952.1645203.073252.1634568.1910921-.0017948.1876417.0023265.3756816.0141587.5629253.0051849.0820767.0521147.122352.126099.046645.0845534-.0864559.1676445-.1743051.2492732-.2634814.2614377-.2853774.5888829-.4725547.9550818-.5701576.7086006-.1889024 1.4073632-.1635562 2.0472308.2350167.4232326.2636804.6543587.6812298.7804577 1.1497371.0565684.2102676.0766432.4358623.0776403.6546892.0067802 1.5469828.0043872 3.0939658.0047196 4.6409488.0000665.066285-.006182.132836-.0018613.198723.0073785.110674-.041479.166475-.1513586.167006-.3209974.001792-.6419283.001792-.9629257.003649-.1007064.000598-.1348069-.056199-.1349399-.146437-.0001329-.08838-.0013294-.176827-.0013294-.265207-.0002659-1.348061.0011965-2.696189-.0023266-4.0442504-.0004653-.1869119-.0100374-.3763452-.0412132-.5602713-.1445119-.8522837-.7709521-1.1158315-1.5143844-.9762282-.7842467.1472338-1.3507283.8768338-1.383167 1.7263308-.0101039.2648085-.0020607.5303471-.0021936.7955531-.0002659 1.071841.0003988 2.143681-.0014624 3.215522-.0003989.24696-.0043208.25041-.2564523.25459-.2656255.004379-.5317163-.007166-.7969429.004446-.1651186.007166-.2111178-.061309-.2086583-.213121.0057831-.353454.0006647-.707107.0005318-1.060693-.0002659-.740349-.0000665-1.480698-.0000665-2.221047 0-1.0386651-.000133-2.0773963.0001994-3.1160612zm-35.5263738 6.3892882c-.0000665.18605-.0164853.211528-.2016121.216438-.2764606.007299-.5533865-.001194-.82998.003318-.1367347.002256-.209456-.046313-.2021439-.19149.0044536-.088115.0006647-.176694.0007312-.265074.0002658-1.690302.0007976-3.380604.0006647-5.0709059 0-.440706-.0009971-.4406397-.4341342-.4435591-.0663399-.0004645-.1328127-.0051754-.1991526-.0031849-.13607.0041138-.1986209-.0384838-.184994-.1945423.0152223-.1746369-.0130951-.3524586-.0110345-.5288207.0035896-.3194156.0071126-.3195483.340341-.3235294.0553054-.0006635.1106773.0014597.1659827.0013934.3050439-.0003318.3001249-.0004645.302385-.3176905.0030578-.4189428-.0106357-.8400751.0276527-1.2562311.1053595-1.1467513.7987377-1.6698658 1.8155064-1.7356864.4038226-.0260761.814093.0465787 1.2213721.0749771.1524888.0106162.2439554.0692045.2323226.2464955-.0128957.1980589.0021272.3977103-.0062484.5962337-.0079767.1888361-.0271209.1960684-.2251435.1806085-.2751312-.0214979-.5503287-.0463133-.8259252-.0554698-.6011804-.0199718-.9072879.3302309-.9576743.8744451-.0375572.4052744-.0112339.816255-.0224678 1.2244488-.0039884.1429873.0753137.1690634.1857916.1692624.2988619.0005309.5976574-.0014597.8964528-.0022559.0664064-.0001991.1332116.0047773.1991527-.0007299.1483674-.0124077.2291319.0350336.2232158.2008457-.0078438.2206184-.0049855.4419004-.0000665.6627178.0031907.1419257-.0571002.1922864-.1986208.1894333-.331899-.0067015-.6639973-.0008626-.9960292-.0005308-.0442709.0000663-.0893395.0029194-.1326133-.0040475-.1527546-.02455-.1819362.0512897-.180075.1866465.0080432.5743378.0080432 1.1487419.009838 1.723146.0010636.3535204.0001994.7070404.0001994 1.0605604-.0045201 0-.0091068 0-.0136269 0 0 .927593.0001329 1.855186-.0000665 2.782778zm4.6755074-6.2971924c.395314-.4255116.9098803-.566442 1.4754313-.5452095.2516662.0094219.2823102.0451853.2874286.2969225.0051849.2541922.004919.5086499.0007312.7628421-.003523.2177653-.0075114.2176989-.2186957.2169691-.0997092-.0003981-.199352-.0007299-.2990613-.0013271-.7777323-.0045119-1.3673465.487152-1.6469313 1.1726284-.12231.2999083-.1742918.6128215-.1726964.9386729.0056501 1.171832.0015288 2.343731.0074449 3.515563.0005318.107025-.001263.164087-.1312174.160902-.3209309-.007962-.6423271-.008559-.9633245-.003052-.1280932.00219-.179942-.041934-.1739594-.171386.0067137-.143319-.0009971-.287301-.0009971-.431018-.0002021-2.012173-.0000665-4.0242792-.0002021-6.0364519-.0000638-.4317485.0008003-.3747527.3777678-.3791319.2103866-.002455.4211055.0070996.6312262-.0010616.1534858-.0059053.2162362.0435265.214109.2064856-.0037224.2868371.0141588.5740059.0242626.8609758.0018613.052882.009838.1054987.0152888.1609021.1941007-.2476234.3666642-.5017493.5733948-.7242255zm-15.7935858 3.0089894c0 1.03913.0000558 2.078325-.0001436 3.117454-.0000664.077366-.0033236.154732-.0030577.232098.0003323.090768-.0350977.150087-.133411.150816-.3321649.002455-.6644626.007764-.9963616-.000331-.0436726-.001062-.1109431-.067214-.1227088-.114324-.0208725-.08347-.0083756-.175499-.0083756-.263879-.0001994-1.73562-.0001994-3.47124-.0003324-5.2067939 0-.0884464-.0063149-.1772246.0000665-.2652066.0113669-.1579163-.0705942-.2155093-.2154385-.2281824-.165185-.014531-.3291735-.0421995-.4941592-.0597163-.1098796-.0116115-.1526216-.0729865-.1519569-.1768265.0009971-.1658121.0043208-.331757-.0006647-.4974365-.0043872-.1434517.0653428-.1972627.2012133-.1967319.2767929.0011944.5536524-.0027867.8304453-.0034502.2879604-.0006635.5759872-.0039148.8638147.001327.2160367.0039147.225077.010948.2273371.2279171.0049855.4753414.0020607.9506829.0021271 1.4260243.000133.6191249.0000665 1.2381835.0000665 1.8572419zm-.7652726-4.9160946c-.4517495-.0130713-.8081769-.3693783-.8358296-.8025202-.0264562-.4139664.3798923-.8757059.8131623-.8593171.4792028.018114.8257922.347416.8309106.8387481.0485917.4348671-.4421109.8337054-.8082433.8230892zm44.3882201 17.4319766c0-.364667-.0069131-.729467.0031907-1.093802.0044537-.159443-.0384213-.277283-.1722976-.366791-.0822269-.054939-.1518904-.128257-.2329208-.185319-.7599176-.534925-1.9887347-.480915-2.4846886.68594-.25951.610566-.2800501 1.243625-.2638308 1.885641.0106357.421132.0757791.835032.2353804 1.228297.4361283 1.074826 1.7051615 1.089092 2.30129.479654.3173414-.324458.5081849-.72887.5543171-1.178467.0495222-.482375.0553719-.969195.0802992-1.454091-.0069132-.000332-.0138264-.00073-.0207396-.001062zm1.2593946 4.608304c-.0556378.2106-.1090154.421863-.1673121.631732-.2439554.878426-.8327719 1.395569-1.6997772 1.632974-.6435237.176163-1.2936281.137613-1.9434002.078826-.3402081-.030853-.6764942-.102778-1.0153063-.15095-.1110761-.015725-.151824-.061242-.129755-.175565.0457998-.237936.0836228-.477465.1225759-.716662.019676-.120892.0645452-.16694.202144-.12839.5369012.150352 1.0889582.195803 1.6429429.166476.2616371-.013801.5309851-.056266.7777323-.14113.602244-.207082.8737856-.690917.9356718-1.28715.0408808-.393862.0138264-.79489.0142917-1.192667.0000664-.041536-.0198754-.083072-.0305111-.124608-.0364271.020901-.0793021.035366-.1080183.063963-.1239719.12348-.2385711.25678-.3663319.37608-.2151061.200779-.4744167.324591-.7613135.381189-.6217206.122551-1.2305454.10238-1.8119834-.184988-.5682099-.280733-.9419867-.750368-1.1381481-1.324772-.4258916-1.247208-.4448363-2.514519-.007312-3.767101.1838639-.526299.4820611-.986977.9369348-1.336052.5696723-.437123 1.2110023-.562461 1.9083025-.473351.4486252.057261.8502542.221216 1.1943841.520328.0444039.03855.110345.052417.1663816.077764.0189447-.05965.0501205-.118371.0547736-.179149.0234649-.303624.0210054-.304885.3262487-.307406.298862-.002455.5978568-.002389.8967852-.00345zm-55.88890828-10.172798c.15508116 0 .31029526-.003848.46524347.000863.24362298.007431.26210244.026076.30923169.251538.20520168.983328.38614077 1.972428.62278411 2.948126.32252626 1.329615.6871963 2.649079 1.03671051 3.97206.0118322.044588.055239.080882.0838888.121025.0252596-.044588.0618197-.086323.0739178-.134163.221554-.876236.4411803-1.752937.6592112-2.630103.3351561-1.34826.668451-2.697052 1.0032747-4.045445.0610221-.245765.0626839-.249083.3039139-.251737.2990613-.003384.5985215.008957.8971175-.002455.1671128-.00637.233918.063034.2711428.216306.1744247.718386.3581557 1.434517.5367682 2.151908.359884 1.445864.7179733 2.892192 1.0787879 4.337856.034167.137082.0822934.27078.1239054.40607.0638139-.134029.1465726-.262353.188517-.402885.4449692-1.491248.8412803-2.995501 1.1620783-4.518332.1523558-.723296.2723392-1.453427.4063485-2.180572.0419444-.227519.0408143-.231036.2725387-.238401.298729-.009488.5977238-.013934.8965858-.018654.1354716-.001981.1960284.0371.1605984.198798-.1134027.517342-.1901789 1.043177-.3144166 1.557666-.3314336 1.37281-.6607401 2.746616-1.0279361 4.110071-.3242546 1.203814-.7048116 2.391968-1.1459919 3.559952-.0682012.180608-.1596678.236344-.3412716.225329-.2317909-.014-.4651106-.00763-.6976326-.002057-.1572747.003716-.2316579-.051621-.2690156-.2175-.1383965-.614015-.3001914-1.222657-.4466311-1.834881-.1923724-.804445-.375771-1.611012-.5682763-2.41539-.2234153-.933697-.4525472-1.866067-.6790867-2.799034-.0156211-.064295-.0246614-.130845-.0473951-.192419-.0093727-.025347-.0469298-.040342-.0717242-.060048-.0118322.017185-.0290486.032777-.0346324.05182-.0216701.074048-.0407478.148959-.0588284.223936-.5276615 2.188734-1.0555224 4.377401-1.5819209 6.5664-.0412131.171585-.0771749.344762-.1059577.518736-.0177482.10729-.0733195.154466-.1771501.154466-.2990614.000066-.5981892-.003981-.89718406.001393-.12004996.00219-.1806732-.04837-.21663501-.158447-.10283349-.314904-.21676796-.626291-.31774021-.941792-.60895776-1.902361-1.13017137-3.829405-1.60930766-5.767662-.20127978-.814132-.37583748-1.634965-.55458297-2.454405-.06746994-.309264-.05736606-.311188.24521834-.308865.12184473.000928.24368946.000132.36553419.000132zm31.68743388 6.659312c0 .331028-.0081097.66232.0044537.992883.0043872.114522.032904.246562.0975156.336999.1752889.245035.4042879.446545.6876617.553238.753935.283851 1.7378661.179812 2.1448129-.893754.0544412-.143717.1036311-.290884.1379976-.44044.1142004-.497105.1373329-1.002437.1234401-1.510822-.0115663-.423388-.094325-.832245-.2541257-1.223055-.4754138-1.162676-1.9215971-1.087168-2.4588307-.33335-.2249441.3157-.3602828.662718-.4039555 1.03548-.0575654.491001-.0705277.98711-.1027005 1.48103.0079103.000597.0158205.001194.0237308.001791zm-1.254675-6.732942c0-.055204-.0005318-.110475.0001329-.165679.003656-.327444.0037225-.329236.3254511-.332885.2323891-.002654.4649776-.003782.6972337.001924.2227505.005441.227736.009953.2341174.222277.0063149.209671.00226.419739.0019942.629675-.0009307.927991-.0023266 1.856048-.0027919 2.784039-.0000665.065953-.0003988.133366.0136934.196864.0037225.016455.0708601.038285.0925302.026806.0361612-.019043.0573661-.064692.0879436-.096143.603507-.621315 1.342818-.797942 2.181373-.680898.6284343.087716 1.1265153.38935 1.4954396.891033.2980643.405208.4750815.874843.5600338 1.367237.1552141.899592.1649191 1.802767-.0459328 2.696786-.1408559.596897-.3820194 1.140647-.827321 1.590244-.8420781.850227-2.3423702.893555-3.0925163.361217-.1167264-.08274-.2356463-.162428-.3535691-.243509-.1076196-.074048-.1431161-.055868-.1601331.082076-.0459992.372431-.0459992.373227-.4202414.373691-.2102536.000266-.4206401-.008559-.6306943-.002189-.1199171.003649-.1550812-.048768-.1535523-.156988.002393-.165679-.0029248-.331425-.0029913-.497104-.0003324-1.480499-.0001994-2.960932-.0001994-4.441364 0-1.535703 0-3.071406 0-4.60711zm-13.2412385 6.212588c0 1.072173.0007977 2.144345-.0005318 3.216584-.0003323.267528-.0033901.270382-.2699462.274628-.2546575.004047-.5097803-.007498-.763906.004512-.1685086.008028-.2097218-.064029-.2017451-.214979.008708-.165215.0027254-.331425-.0032571-.496972-.0019277-.053147-.0242626-.105631-.0372913-.15838-.0407479.031848-.0910678.05673-.1207812.09674-.1879852.253197-.4242297.443824-.7023521.593447-.7652354.411777-1.5535369.425644-2.3288762.079223-.4433739-.198125-.7456259-.569228-.8894732-1.053793-.1111426-.374354-.1643209-.753154-.1642544-1.142106.0003324-1.503258.0016618-3.006515-.0061291-4.509772-.0008505-.158912.0390996-.221548.1988339-.218031.2767265.006171.5537188-.001467.8305118.002986.2367098.003782.2363774.00763.2363109.240457-.0003988 1.193795-.0025259 2.387523.0001994 3.581317.0007977.353321.0041878.707372.0268551 1.059765.0265226.412241.1477026.792036.5521235.988967.4905031.238799.9899801.220486 1.4588131-.058123.6629337-.393796.9223107-1.019755.9313511-1.758777.0118321-.961498.0032571-1.923262.0035895-2.884893.0000665-.320543.0066473-.641286-.0019942-.961564-.0042543-.15858.0529124-.215642.2111842-.210533.2765936.008891.5539183.010152.8303124-.000664.1641879-.006369.2172997.062304.2112507.213984-.0057167.143451.0000665.287367.0000665.431018.0001329.961631.0000664 1.923328.0000664 2.884959zm26.3490261 3.335492c.0005982.109281-.0053843.162494-.1332116.159044-.298729-.008028-.5977904-.009156-.8965193-.002521-.1477692.003317-.1939678-.062769-.1901789-.197926.0049855-.176628.0063814-.353653-.00113-.530015-.0019942-.047176-.0420773-.092693-.0646781-.139007-.0408808.029261-.0947903.049897-.1206482.089044-.6092236.922815-2.1638241 1.1715-3.1099322.634386-.4023601-.228382-.6677198-.562328-.8131623-.997726-.1098797-.329037-.1445785-.667628-.1443808-1.012191.0007329-1.514006.0002676-3.028013.0003341-4.542085 0-.055205.0024595-.110475.002393-.16568-.0001994-.110806.0569672-.158587.1652515-.158181.3100294.001327.6200587.003981.9299552-.000332.1354052-.001858.1720982.064626.1637226.184855-.0054508.076968-.0005318.154665-.0005318.232031.000133 1.403531-.0017948 2.806996.0027254 4.210527.0005982.17477.029381.350335.0553054.524043.0771085.517143.4864483.841071 1.0538605.873318.7706862.043659 1.4286345-.402156 1.6943265-1.173956.0810968-.235481.1290238-.494052.1316162-.742737.0128957-1.215492.0052514-2.431182.004919-3.646873 0-.066285-.0014624-.132636.0005982-.198855.0080433-.252931.0084421-.256249.2626343-.259964.2767264-.003982.5535858.001658.8303123-.001991.1427172-.001858.1789449.050361.1776819.199121-.0091067 1.116096-.004919 2.23226-.004786 3.348423.0001994 1.105083-.0019942 2.210165.0035231 3.315248zm-17.3160241.153849c-.7748075 0-1.549615.002256-2.3244225-.001327-.2469467-.001128-.2468802-.008095-.2548569-.260297-.0259245-.820103-.0267221-.820634.45042-1.492906.6189951-.872057 1.2323401-1.748161 1.8619044-2.612454.3372168-.462801.7034157-.904569 1.0567189-1.355692.033037-.042199.0832905-.079422.095455-.126665.0079103-.030787-.0335023-.103574-.0618197-.108816-.0858165-.015792-.1760201-.008957-.2644955-.008957-.8744503 0-1.7489006.00053-2.6233509.000729-.0775074 0-.1549482-.000398-.2323891-.002455-.0886748-.002388-.1492316-.038483-.149431-.13675-.0004653-.254126.0003324-.508185.0003324-.762245-.0000665-.094617.0491234-.141793.1413877-.145575.0663399-.002654.1328128-.002853.1992192-.002919 1.4279032-.00011 2.8558065-.00011 4.2837097-.00011.0553054 0 .1106773.002233.1659827.001039.1063566-.002323.1711011.044455.1712341.154068.0004653.253927.007179.50865-.0109681.761448-.0065143.091035-.0614873.189434-.1201829.264278-.5914089.754017-1.2021614 1.493371-1.7795446 2.257806-.5581725.739021-1.0838398 1.502593-1.623134 2.255881-.0321064.044853-.0596261.093025-.0878106.140599-.0456004.077033-.0277857.126333.0661405.130645.0993769.004579.1990197.004048.298596.004048 1.0293985.000265 2.0588635-.000664 3.0882621.000796.2754634.000398.2760617.003649.2825096.274894.0044536.187642.0051184.37535.0107021.562925.0045201.150883-.0569008.215045-.2161032.213099-.5201501-.006746-1.0404331-.002101-1.5606496-.001969-.2878274.000133-.5756548.000067-.8634158.000067zm19.4847167-3.502584c0-1.028115-.0000559-2.056297.0001436-3.084412.0000664-.088446.0044536-.176893.0032571-.265273-.0015288-.10729.0423432-.163821.1562112-.163091.2879604.001857.5759208.002853.8638147-.001195.1499627-.002057.1832656.07657.1816703.208874-.0031907.265074.0031907.530414.0107021.795487.0014624.050427.0266556.100257.0408808.150353.045401-.03855.1063566-.068409.1336769-.117044.1484339-.264211.3586875-.467313.5842299-.667164.4271545-.378601.9300216-.418013 1.4588796-.384771.1072207.006701.1585377.061906.1584712.16966-.0000664.320544.0008642.641154.0029311.961697.0006585.101253-.0517886.134428-.1457812.12839-.0993769-.006369-.1990862-.007033-.298596-.011876-.9461081-.046513-1.6126313.648054-1.8146423 1.40519-.05032.188769-.067337.391207-.0684671.587541-.0068467 1.171766-.0038554 2.343664-.0057831 3.515497-.0004653.269386-.0033236.272704-.2681515.276486-.2767929.003981-.5537853-.002123-.8306447.001896-.1132697.001554-.1617284-.046683-.1596013-.156628.0015289-.077299-.0017948-.154665-.0017948-.23203-.0001329-1.039196-.0000664-2.078392-.0000664-3.117587zm-24.4871176-3.046233c.4348654-.457493.9958298-.534394 1.5901635-.485427.0973827.007962.1632573.050759.1620608.166675-.0033901.320411-.0024595.640888.0006938.961299.0011674.126067-.0708227.130977-.171529.135489-.2854344.012939-.5785797.003517-.8535779.067546-.5702041.132703-.9239061.539835-1.1525727 1.052134-.121047.271311-.1698381.563921-.1685087.87.0049855 1.160088-.0077108 2.320176-.0138263 3.480264-.0002659.054872.0003324.109811-.0013295.164684-.0027918.093224-.0491234.13821-.1453761.137745-.3099629-.001526-.6199258-.002123-.9298887.001305-.1133362.001217-.1594018-.050869-.1590695-.159022.0003324-.13257-.0040548-.26514-.0040548-.397644-.0003324-2.022324-.0002659-4.044582-.0002659-6.06684 0-.04419-.0008642-.088447.0007977-.13257.0094391-.252998.0096385-.256183.2651601-.261027.2323891-.004445.4651106-.006768.6973667.000863.2072623.006834.2315249.028597.2394352.230571.0105027.264808.0051184.53028.0091733.79542.0007976.054409.0127627.10875.0201412.167339.2179645-.260098.4037561-.506527.6150068-.728804zm-8.0350252-2.921433c.4595268.00564.7347244.328175.7549987.815327.0167511.400497-.3956464.737562-.7784636.718851-.4572002-.022361-.7542009-.315767-.7500131-.778037.0041213-.454043.3188702-.761714.773478-.756141zm2.5629205.001354c.452946-.003716.7877698.332885.7823855.78653-.005052.42498-.3273788.742074-.7567934.744462-.4577321.002588-.768825-.300572-.7692246-.749638-.0003981-.461739.3003251-.777705.7436325-.781354z" fill="#e83223" fill-rule="evenodd"></path></svg> 