<?xml version="1.0" encoding="UTF-8"?> <svg xmlns="http://www.w3.org/2000/svg" height="91" viewBox="0 0 92 91" width="92"><g fill="none"><path d="m0 91h92v-91h-92z" fill="#bb8e39"></path><path d="m3.449077 87.5840584h85.1094829v-84.48141249h-85.1094829z" fill="#fff"></path><path d="m21.8730046 17.1833023c.4861806-.1994991.3639978-.3486687-.0535554-.4143599-4.6047089-.5103701-9.6879617 2.3092984-9.8432352 5.4094178.0020353.3486687-.1093514.894411.3614529 1.6018546.1170909.1414888.1629086.2829776.4759988.1515951.2138181-.1010633 1.4432665-.389094 1.6570845.6013273.1297152.7807146-.0535553 1.3542492-.684725 1.7989286-.4963607.3613009-1.1556319.6518584-1.8098112.5457415-.5523603-.0782218-1.5476305-.7807145-1.8378101-1.6675455-.23672685-.8085071-.39199854-2.2436072.2901796-3.6483882.6287255-1.2253936 2.9908988-5.3159343 10.3675966-6.4630036 2.6447161-.2097066 7.351244-.389094 9.5555988 2.9712635 1.8352651 2.8929395.3945436 6.6701836-1.3643581 8.0496984-1.4178127 1.2279213-2.5734446 1.8545127-4.9101623 2.6630204-.2876364.108745-.4505449.1414886.348726.4876308.3716348.1794884 2.3698084 1.4805791 3.8258018 3.600384 1.1021774 1.432573 2.0210843 3.5170044 2.9425343 5.3411995.6261786 1.2506585 1.59854 3.4917392 3.9352577 5.5509072 1.3134486 1.071272 1.970173 1.3820407 3.8868932 1.5892204 1.6545396.0984365 3.339623.3158246 6.2567035-.4370985 2.8025327-.7630277 4.5003449-1.6751262 5.9996127-2.377517 1.7003554-.8236665 3.3116223-1.6852308 4.0854375-2.1475963-1.6952653-.3941465-4.3119825-.146541-5.3377965.0555846-1.1963596.2223403-2.5072632.8489335-3.5738049 1.2051821-.8501785.2905558-1.041086-.325931-.4759988-.6468061.5956348-.3360357 1.0767236-.5078437 2.071992-.9499963 1.9778117-.8464056 3.6883507-.9146228 5.1927068-.9980007 1.1301781-.0555846 3.0265345.1010628 4.0345298.2071797.7941791-.4522591 1.8759927-1.0359003 3.2734415-1.7003914 1.5247217-.7605016 5.1265254-2.4027822 7.5905159-3.3098265 1.4687222-.5204763 5.0730708-1.8646191 7.6210616-1.9151514 2.6268991-.1819127 5.281797.709971 6.213429 2.8777803.9698145 2.162757-.8654505 4.4291029-2.1279915 5.290669-1.0767218.7554493-2.9679882 2.031373-6.2210659 2.3471976-2.4436267.2602382-6.5621568-.0808517-8.7690566-.601328-1.8912646-.3385618-6.2974292-1.3011908-7.1399709-1.45784-.5498171.2855052-5.3021609 3.2567681-7.2214261 4.2446622-1.7029022.8615662-4.6887092 2.1905502-6.5799756 2.8171435-2.0007186.7478689-6.6792459 1.6397526-10.1970493.1794884-4.5130737-1.5892222-7.3232452-6.0688574-8.7156021-9.8233627-1.6239939-3.9364179-1.9039934-7.963794-3.9632566-8.519642-.3054533-.0630648-.2774545-.0080808-.2621825.3360357v10.4777454c.0254556.4446788.0254556 1.3567773.6796349 1.9025188.3970886.3385619.4479981.3132967.7101789.4952111.5752709.2602382.6058148 1.1976001-.6032698 1.0662179-.68218-.0228392-2.8076265-.1287541-4.2814387.2880314-1.0487229.341088-2.4919893.9398898-4.3832558 1.8519865-1.1021774.5962738-2.74908.8110338-2.3290808-.1010628.3207253-.6796517 1.5629025-.7908209 2.7261713-1.801456.814541-.6518585 1.5730843-1.0940111 1.9167184-3.0495866.1299205-.9904221.3130902-3.0748536.4174542-3.8833613.0281016-.5760609.2876346-8.4691115.3436341-9.3812082.0509095-.7832424.101819-5.0279043 1.6799934-7.2715115 1.3643581-1.7433434 2.0210825-2.3674098 4.2254391-3.4386818m40.6838388 10.4550075c1.0003603-.6341735 5.2512514-3.3199323 5.6381599-3.6079629.6185417-.3511954 1.3465394-1.1546493.6109067-2.6225949-1.2829048-2.4078352-3.1283517-2.3699365-5.0374351-1.8620929-3.0825341.9171502-4.6607085 4.0627481-5.154526 5.7833523-.699997 2.6402818.2469087 4.1461261 1.1098142 5.2022375 1.2141765 1.4628924 3.0850791 2.4760536 4.7014361 1.8545127 2.1483553-.8413514 3.3141691-2.8575656 3.446532-3.0445342.0763633-.1034889.226545-.4168856.1883624-.7958733.0061058-.4800523-.3614529-.5760609-1.1403582.0782218-2.3163557 1.8595668-3.678167.2097077-4.0243479-.1162216-.0865453-.0782236-.2494538-.2400252-.4378162-.5230043-.0661815-.0909563-.0838976-.2476037.0991694-.3461421m12.7221331-8.9264228c.1425448-.176861 1.1785408-1.3365634 1.2472672-1.387095.122181-.1111698.1781805-.3234029.6389056.0252658.2163631.1768609 1.2370871.9045173 1.3389043.9702085.1425447.0681168.5498171.3562485 1.1199962.3309827.4199974-.0681168.5727241-.2198129.8832693-.432046.216363-.2122331.8323598-.474998.4683619.3966737-.3003633.6341728-.9647245 1.4679458-2.2858101 2.3800428-.356361.2425521-1.15054.6670183-2.1025358.0960103-.5039994-.2652914-.7458164-.4396258-.8832693-.5305828-.213818-.1287548-.5345433-.3789877-.5345433.0960101l.0040705 5.3639391c.014247.1970732-.0686256.8893576.4963608.6139606.4327262-.1994993.7992691-.3663551 1.1149043-.4977372.2316369-.1010628.6618162-.0656911.348726.7428148-.3003615.6265932-.5472703 1.5487963-2.311262 2.5897508-.4963626.2804511-2.0414481.5280548-3.0239896-.4977373-.3996336-.4749981-.7789053-1.1192781-.7941772-1.6321741 0-.4775244-.0661833-7.0415917-.0661833-7.0415917 0-.1010633.0122117-.3436154-.3003614-.3436154-.2978165-.0202128-1.3287224.1313823-.7967241-.396674.4836338-.4952105 2.1254465-1.8469332 2.2909001-1.9303105.1502825-.1819141 1.0945405-.4295195 1.713084.1819141.4989077.4269927.582906.462365.9443589.8085069.2009885.2147599.3512728.2349724.4887257.0935848m-19.6202834-1.0510593c0-.7352361-.7127257-.5785878-.7992709.1111698-.8807225 3.69892-2.4588987 5.1441265-4.7777994 6.9481079-.6261786.5634283.437818.5912208.9367238.5634283.5116346.0181909.3716348.2122331.3970905.3941472 0 .1566483-.0254557 6.5842797-.0101764 6.9784262.0686256.5204763.4098155 1.2683471 1.023269 1.8065084.8298148.7023907 2.3596265.6518584 2.9705332.2779249 1.5781762-.8590382 2.0490831-2.2537133 2.2654462-2.6781792.2978165-.7200775-.2418187-.7049187-.4429081-.6215409-.1679986.1010628-.6541792.3259293-1.0512679.4952111-.3741816.1693819-.45818-.1691799-.4759988-.3941483v-7.0036918c-.0101764-.2981371-.0203638-.3840409.0865453-.4194132.4734519-.1869671.8858143-.3082432 1.3032667-.5482688.4938176-.2652914.4632719-1.1748618.0661814-1.1116973-.3996336.0582125-1.0996305.1287548-1.382175.116223-.1272729.030319-.0838976-.1137975-.0991713-.2223395v-4.1814975c0-.1135953 0-.2097066-.0101764-.5103703m-8.7945105 3.0167421v4.1789712c.0162822.1111696-.0305457.2526584.0993748.2273926.2825446.0141487.9825415-.060638 1.3821751-.1186485.3996355-.0630636.4301812.8489324-.0712714 1.1116967-.4123624.2400253-.8323598.3613028-1.3007218.5507957-.1044648.0353717-.0940794.1186495-.0814552.4143594v7.0062193c.014247.2223403.0991713.5634301.470907.3941483.3996354-.171808.8832693-.3941483 1.0538147-.4952111.2009885-.0832759.7381795-.0984347.4429081.6215409-.2163631.4244659-.68727 1.816613-2.2654462 2.6832315-.6109067.3688812-2.1458103.4194135-2.9730801-.2829773-.6109066-.5381612-.9545407-1.286032-1.028359-1.8065083-.0101764-.3941465.0183358-6.8217786.0183358-6.9758999-.027898-.1845407.1120009-.3789877-.4021786-.3966726-.4963626.0303176-1.5603593 0-.9316338-.5634301 2.3163539-1.8039806 3.8945301-3.2466605 4.7752544-6.948107.084101-.6897576.799269-.8464059.799269-.1111698.0122117.2956104.0122117.3966739.0122117.5103702m-13.7632191 8.7546155c-.5065426.1212757-.335999.5912216-.22909.6240671.244362.0731695.460725.0606369.9036331.1338082.3996336.060637.4149074.126328.3996336.4598376 0 0-.0142469 6.3846801 0 6.6423921 0 .5002634.2009885.9777877.5421803 1.4805773.8578154 1.0813785 2.6828986 1.0940111 3.2963503.7908209 1.3185405-.6872302 2.0618101-1.9353625 2.3799903-2.6074339.4301812-.8363009-.1350087-.8514597-.3792698-.8085077-.3258172.0782236-.6159986.3815139-1.0919955.5482677-.5498171.26024-.4021805-.469944-.4327262-.7124954 0-.2779249-.0305457-7.7288229-.014247-7.7288229 0-.7984013-.4912707-.533109-.8145428-.42952 0 0-4.2050735 1.4401532-4.5588913 1.6069089m5.6177961-8.125497c.2494538-.103691.8018159-.3815142.7865421.3360359-.0142469.7150234-.5065426 4.0678012-3.3752586 5.3184599-.3079984.0909581-1.0945406.2122338-.7534515-.4876308.351271-.6392252 1.1658138-2.7893488.5370884-3.5220584-.1859183-.2880306-.353816-.5482688.2163631-.7605019.3945436-.1212761 2.5887165-.8843047 2.5887165-.8843047m20.6308072 18.4440689s.437818.1338064.8018159.2198123c.3792717.1010628 1.4636303.2728708 2.9170787.5078437 1.6392676.2880296 4.5767101.6089065 6.3737944.6771238 2.1356265.0681171 4.031983-.3739336 4.9865256-.8615644 1.4483565-.8489335 2.2374455-2.6453354 1.7079922-3.6281754-.6669062-1.1900216-1.7919924-1.2733994-3.3345311-1.3896228-1.7563567-.1542214-3.9938041.5255304-5.8214322 1.0839046-2.6116254.8312468-5.174888 2.188024-6.7963368 2.9838973-.4403613.2198123-.6210886.2855034-.8349067.4067809m-38.6373007-12.5243828c-.0040706.5078437-.0865452.6771256.4250893.5558499 1.4687203-.3335096 2.3570815-.962629 2.9068968-1.3390905 1.1352681-.8135602 2.2247186-2.4912124 2.5505357-3.8025098.2825445-1.1874949.1119991-1.8014549-.0814552-2.8878863-.4098155-1.3593025-1.1989027-1.8772524-1.5476287-2.1198046-.2978182-.2021266-.9112699-.5988005-1.7741754.0454786-.6007248.4295194-1.3974489 1.0207402-1.9930836 2.8196684-.3843617 1.3668825-.366543 1.7155512-.4505432 3.0975929-.0509095 1.0914846-.0228079 3.2315026-.0356357 3.6307014m41.0020191-2.367409c.5752709-2.7893495 2.1687191-3.8429353 2.3494464-3.9920038.246907-.1590739 1.6469027-.6796514 1.6138101 1.1698086-.0535554 1.2557126-.0020353 1.6195408-1.0359941 2.6503874-.6999988.523003-2.6599898 1.75345-2.6599898 1.75345-.1146468.0681172-.1883643-.0226389-.2570907-.2198123-.0838976-.4219404-.1018172-.8994649-.0101764-1.3618299m-42.5776558 30.9152902c-.7839971-.6468061-1.7818105-1.0788523-2.8254434-1.0788523-.7789053 0-1.8199931.4522591-1.8199931 1.3567772 0 .9474684 1.1479969 1.3138235 1.8836295 1.5513225l1.0894505.3234031c2.2756281.6695434 4.0345299 1.8090345 4.0345299 4.4341552 0 1.6195416-.3869086 3.2795071-1.6901753 4.3760444-1.2803598 1.0763262-2.9959889 1.5311114-4.6454365 1.5311114-2.0643551 0-4.0803475-.6948105-5.752704-1.8519865l1.8276282-3.4033108c1.0589048.9222049 2.3189007 1.6776523 3.7723491 1.6776523.9978134 0 2.059265-.4952092 2.059265-1.6372265 0-1.1849674-1.6698114-1.5942745-2.5785364-1.8519865-2.6701699-.7529212-4.4290735-1.4452056-4.4290735-4.5882782 0-3.2971921 2.3698103-5.4498426 5.6432518-5.4498426 1.6494477 0 3.6654401.515424 5.1214335 1.3340363zm4.6047089-4.1789711h6.5087023c3.5178034 0 5.9461582 1.6144874 5.9461582 5.3386733 0 3.8353552-2.0796288 5.5180616-5.7908865 5.5180616h-2.407991v5.3841515h-4.255983zm4.255983 7.4483718h.7152707c1.5374486 0 3.0596234 0 3.0596234-1.9783163 0-2.0465336-1.4101757-2.0692727-3.0596234-2.0692727h-.7152707zm27.5748008.3714074c0 5.2552955-3.7978029 8.9592685-9.0516011 8.9592685-5.2537964 0-9.0465093-3.703973-9.0465093-8.9592685 0-4.9116813 4.3374382-8.3629946 9.0465093-8.3629946 4.711618 0 9.0516011 3.4513133 9.0516011 8.3629946m-13.674127.0182c0 2.7994567 2.0847189 4.8459902 4.6225259 4.8459902 2.5429007 0 4.6276196-2.0465335 4.6276196-4.8459902 0-2.2385527-2.0847189-4.2850863-4.6276196-4.2850863-2.537807 0-4.6225259 2.0465336-4.6225259 4.2850863m29.29043 8.4034205h-5.2945258l-4.014166-6.25077h-.0433735v6.25077h-4.2585298v-16.2408847h6.3636125c3.2327139 0 5.6839775 1.5285834 5.6839775 4.9975835 0 2.2385545-1.259996 4.176445-3.5839867 4.5857521zm-9.3519645-8.9617947h.4123624c1.387267.0001001 2.9501712-.2576101 2.9501712-2.0236944 0-1.7711348-1.5629042-2.0237927-2.9501712-2.0237927h-.4123624v4.0475872zm17.0952052 8.9617947h-4.255983v-12.6657677h-3.5127134v-3.575117h11.2839567v3.575117h-3.5152603z" fill="#034ea2"></path></g></svg> 