<?xml version="1.0" encoding="UTF-8"?>
<svg width="24px" height="24px" viewBox="0 0 24 24" version="1.1" xmlns="http://www.w3.org/2000/svg" xmlns:xlink="http://www.w3.org/1999/xlink">
  <title>Icons/Admin</title>
  <g id="Icons/Admin" stroke="none" stroke-width="1" fill="none" fill-rule="evenodd">
    <path d="M12.1643731,1 C12.6019091,1 12.9831577,1.29811877 13.0886551,1.72274569 L13.2579284,2.4040708 C13.3413902,2.74000459 13.6005492,3.00420488 13.9348129,3.09412243 L14.2821167,3.1875478 C14.6175713,3.27778568 14.9755491,3.17822067 15.2162387,2.92773885 L15.6943917,2.43013262 C15.9986197,2.11352739 16.4798715,2.0459462 16.8595336,2.26651419 L17.1472042,2.43363896 C17.5237465,2.65239449 17.7039493,3.09868595 17.5848692,3.51756304 L17.3904834,4.201336 C17.2963183,4.53257173 17.3882962,4.88884051 17.6310361,5.13309755 L17.8882686,5.3919378 C18.1332984,5.63849899 18.4931977,5.73197779 18.8272431,5.63582323 L19.4879207,5.44564797 C19.9093685,5.32433472 20.359175,5.50650655 20.5774313,5.88690022 L20.7469475,6.18234596 C20.9634099,6.5596132 20.8967699,7.03559944 20.585023,7.33891518 L20.0800303,7.83025048 C19.8333339,8.07027505 19.735343,8.42473298 19.82372,8.75738957 L19.9196351,9.1184197 C20.0085285,9.45301969 20.2719962,9.71302633 20.6077424,9.79748748 L21.2799633,9.96659305 C21.7032695,10.073081 22,10.4537028 22,10.8901977 L22,11.2348023 C22,11.6712972 21.7032695,12.051919 21.2799633,12.1584069 L20.6077424,12.3275125 C20.2719962,12.4119737 20.0085285,12.6719803 19.9196351,13.0065803 L19.82372,13.3676104 C19.735343,13.700267 19.8333339,14.054725 20.0800303,14.2947495 L20.585023,14.7860848 C20.8967699,15.0894006 20.9634099,15.5653868 20.7469475,15.942654 L20.5774313,16.2380998 C20.359175,16.6184934 19.9093685,16.8006653 19.4879207,16.679352 L18.8272431,16.4891768 C18.4931977,16.3930222 18.1332984,16.486501 17.8882686,16.7330622 L17.6493844,16.9741486 C17.4756333,16.4896794 17.2413337,16.0340509 16.9556075,15.6163849 C18.0478076,14.4166688 18.7142857,12.8178306 18.7142857,11.0625 C18.7142857,7.33457794 15.7081976,4.3125 12,4.3125 C8.29180239,4.3125 5.28571429,7.33457794 5.28571429,11.0625 C5.28571429,12.8178306 5.95219238,14.4166688 7.04462664,15.6172134 C6.75866626,16.0340509 6.52436667,16.4896794 6.35061563,16.9741486 L6.11173138,16.7330622 C5.86670162,16.486501 5.50680227,16.3930222 5.17275691,16.4891768 L4.5120793,16.679352 C4.09063151,16.8006653 3.64082499,16.6184934 3.42256871,16.2380998 L3.2530525,15.942654 C3.03659005,15.5653868 3.10323009,15.0894006 3.41497697,14.7860848 L3.9199697,14.2947495 C4.16666612,14.054725 4.26465704,13.700267 4.17627997,13.3676104 L4.08036489,13.0065803 C3.99147153,12.6719803 3.72800376,12.4119737 3.39225758,12.3275125 L2.72003665,12.1584069 C2.29673047,12.051919 2,11.6712972 2,11.2348023 L2,10.8901977 C2,10.4537028 2.29673047,10.073081 2.72003665,9.96659305 L3.39225758,9.79748748 C3.72800376,9.71302633 3.99147153,9.45301969 4.08036489,9.1184197 L4.17627997,8.75738957 C4.26465704,8.42473298 4.16666612,8.07027505 3.9199697,7.83025048 L3.41497697,7.33891518 C3.10323009,7.03559944 3.03659005,6.5596132 3.2530525,6.18234596 L3.42256871,5.88690022 C3.64082499,5.50650655 4.09063151,5.32433472 4.5120793,5.44564797 L5.17275691,5.63582323 C5.50680227,5.73197779 5.86670162,5.63849899 6.11173138,5.3919378 L6.36896392,5.13309755 C6.61170384,4.88884051 6.70368167,4.53257173 6.60951661,4.201336 L6.41513079,3.51756304 C6.29605067,3.09868595 6.47625346,2.65239449 6.85279576,2.43363896 L7.14046641,2.26651419 C7.52012849,2.0459462 8.00138035,2.11352739 8.30560832,2.43013262 L8.7837613,2.92773885 C9.02445087,3.17822067 9.38242875,3.27778568 9.71788327,3.1875478 L10.0651871,3.09412243 C10.3994508,3.00420488 10.6586098,2.74000459 10.7420716,2.4040708 L10.9113449,1.72274569 C11.0168423,1.29811877 11.3980909,1 11.8356269,1 L12.1643731,1 Z M12,15 C14.209139,15 16,16.790861 16,19 L16,21.5454545 L16,21.5454545 L16,21.625 C16,22.3843915 15.3843915,23 14.625,23 L9.375,23 C8.61560847,23 8,22.3843915 8,21.625 L8,21.5454545 L8,21.5454545 L8,19 C8,16.790861 9.790861,15 12,15 Z M12,14 C13.6568542,14 15,12.6568542 15,11 C15,9.34314575 13.6568542,8 12,8 C10.3431458,8 9,9.34314575 9,11 C9,12.6568542 10.3431458,14 12,14 Z" id="Combined-Shape" fill="#2cd8d8"></path>
  </g>
</svg>