<?xml version="1.0" encoding="UTF-8"?> <svg xmlns="http://www.w3.org/2000/svg" height="24" viewBox="0 0 24 24" width="24">
  <path d="m21 0c1.5976809 0 2.9036609 1.24891996 2.9949073 2.82372721l.0050927.17627279v12c0 1.5976809-1.24892 2.9036609-2.8237272 2.9949073l-.1762728.0050927h-7v2h3c.5522847 0 1 .4477153 1 1 0 .5128358-.3860402.9355072-.8833789.9932723l-.1166211.0067277h-10c-.55228475 0-1-.4477153-1-1 0-.5128358.38604019-.9355072.88337887-.9932723l.11662113-.0067277h3v-2h-7c-1.59768088 0-2.90366088-1.24892-2.99490731-2.8237272l-.00509269-.1762728v-12c0-1.59768088 1.24891996-2.90366088 2.82372721-2.99490731l.17627279-.00509269zm-8 18h-2v2h2zm-1-3c-.5522847 0-1 .4477153-1 1s.4477153 1 1 1 1-.4477153 1-1-.4477153-1-1-1zm9-13h-18c-.51283584 0-.93550716.38604019-.99327227.88337887l-.00672773.11662113v10c0 .5128358.38604019.9355072.88337887.9932723l.11662113.0067277h18c.5128358 0 .9355072-.3860402.9932723-.8833789l.0067277-.1166211v-10c0-.55228475-.4477153-1-1-1z" fill="#9E7AF2" transform="translate(0 1)"></path>
</svg>