<?xml version="1.0" encoding="UTF-8"?>
<svg width="24px" height="24px" viewBox="0 0 24 24" version="1.1" xmlns="http://www.w3.org/2000/svg" xmlns:xlink="http://www.w3.org/1999/xlink">
  <title>Icons/Panda</title>
  <g id="Icons/Panda" stroke="none" stroke-width="1" fill="none" fill-rule="evenodd">
    <g id="Combined-Shape" transform="translate(0.142136, 1.050253)">
      <path d="M2.16218504,11.7124224 C0.413282298,8.12987986 0.333678709,4.61708183 2.46990638,2.52707162 C4.60613392,0.437061055 8.19661224,0.514942414 11.8583773,2.22484545 C15.5189543,0.514942414 19.1094327,0.437061055 21.2456603,2.52707162 C23.381888,4.61708183 23.3022844,8.12987986 21.5545698,11.7124224 C24.8671425,25.7047397 -3.43351482,25.0152863 2.16099692,11.7124224 L2.16218504,11.7124224 Z" id="path4612-path" stroke="#3DCC3D" stroke-width="1.5" stroke-linecap="round" stroke-linejoin="round"></path>
      <path d="M3.87782061,8.89590696 C4.584736,7.93720022 5.36987452,7.03609894 6.22553232,6.20144441 C7.07864398,5.36429884 7.99967177,4.59614685 8.97957889,3.90452551 C6.99186538,3.31518448 5.28811094,3.4442118 4.34712535,4.36367681 C3.40732775,5.28430422 3.27544718,6.95119779 3.87782061,8.89706937 L3.87782061,8.89590696 Z" id="path4612-path" fill="#3DCC3D"></path>
      <path d="M14.7359877,3.90452551 C15.7163059,4.59609687 16.6377329,5.36425002 17.4912224,6.20144441 C18.3464691,7.03614427 19.1312096,7.93724439 19.8377461,8.89590696 C20.4401195,6.95119779 20.3094271,5.28430422 19.3684414,4.36367681 C18.4274556,3.4442118 16.7248893,3.31518448 14.7359877,3.90452551 L14.7359877,3.90452551 Z" id="path4612-path" fill="#3DCC3D"></path>
      <path d="M8.33854648,9.58145051 C10.3041428,9.58396297 11.0493722,11.455387 11.1009787,14.0021339 C11.1537716,16.606142 8.78105763,18.1510203 6.45085547,18.1510203 C4.48506214,18.1510203 3.49188368,16.1575353 3.98283764,13.9930414 C4.5467527,11.5064574 6.37295141,9.57893718 8.33854648,9.58145051 Z M8.02783738,14.3265001 C7.3379708,14.3272268 6.77939391,14.8751206 6.78038172,15.5500617 C6.7811245,16.2250029 7.34113393,16.771302 8.0310005,16.770528 C8.72066984,16.7695116 9.27924555,16.2217153 9.27825818,15.546967 C9.27747091,14.8720259 8.71750524,14.3255337 8.02783738,14.3265001 Z" fill="#3DCC3D"></path>
      <path d="M14.9540249,9.75519421 C16.9196199,9.75268087 18.7458187,11.6802011 19.3097337,14.1667851 C19.8006877,16.331279 18.8075092,18.324764 16.8417159,18.324764 C14.5115137,18.324764 12.1387997,16.7798857 12.1915926,14.1758776 C12.2431991,11.6291307 12.9884285,9.75770666 14.9540249,9.75519421 Z M15.2553595,14.5002442 C14.565493,14.5009709 14.0069161,15.0488645 14.0079039,15.7238058 C14.0086467,16.398747 14.5686561,16.9450452 15.2585227,16.9442722 C15.948192,16.9432993 16.5067677,16.3954579 16.5057804,15.7207111 C16.5049931,15.0457698 15.9450274,14.4992778 15.2553595,14.5002442 Z" fill="#3DCC3D"></path>
      <path d="M10.7057934,17.4246784 L12.4313331,17.4267707 C12.9325422,17.4273031 13.2351796,18.0834163 12.8279134,18.3057304 C12.420646,18.5280433 11.8907487,18.8172552 11.8907487,18.8172552 C11.6120185,18.9664945 11.3867273,18.96881 11.1420294,18.8159765 C11.1420294,18.8159765 10.698199,18.5445182 10.3066824,18.3029069 C9.91544739,18.0610388 10.2045878,17.4242053 10.7057934,17.4247202" id="path5233" fill="#3DCC3D"></path>
      <path d="M9.72160931,19.1365207 L9.72160931,19.1384452 C9.72089807,19.4321357 9.83067341,19.6726505 10.0040977,19.8327021 C10.1769856,19.9932785 10.4069069,20.0735667 10.6400464,20.073392 C10.9041161,20.0735623 11.1760524,19.970539 11.3814798,19.7604602 C11.587086,19.5505564 11.7208193,19.2358756 11.720641,18.8309362 C11.7208149,18.7585193 11.6607466,18.6997463 11.5867284,18.6995714 C11.5127102,18.6995714 11.4526374,18.7581695 11.4524587,18.8305863 C11.451386,19.1809508 11.3405374,19.4219903 11.1876737,19.5790684 C11.0342738,19.7359715 10.8336737,19.8110121 10.6400464,19.8110121 C10.4691251,19.8110121 10.3069645,19.7524139 10.1887856,19.6423893 C10.0709644,19.5320149 9.99068861,19.3705638 9.98979468,19.1384452 L9.98979468,19.1372252 C9.98997302,19.0648084 9.9300795,19.0060353 9.85606129,19.0056854 C9.78204309,19.0055149 9.72179156,19.0641082 9.72160931,19.136525" id="path7635" fill="#3DCC3D"></path>
      <path d="M13.2399804,19.1412435 C13.2387333,19.3723127 13.1564864,19.5327141 13.0343743,19.6436134 C12.9119045,19.7539878 12.7424135,19.8134605 12.5638043,19.8134605 C12.3614165,19.8134605 12.1518769,19.7371955 11.9932921,19.5797676 C11.8350648,19.4221649 11.7213557,19.1823498 11.7206406,18.8330348 L11.7206406,18.8318147 C11.7211769,18.7592231 11.6616406,18.7001001 11.5876224,18.6995718 C11.5134253,18.6990506 11.452995,18.7574734 11.452456,18.8298902 L11.452456,18.8330387 C11.451748,19.2388527 11.5903042,19.554758 11.8025254,19.764137 C12.0142103,19.973866 12.2932982,20.0758442 12.5638043,20.0758442 C12.8023075,20.0758442 13.0375925,19.9967805 13.215844,19.8369037 C13.3942744,19.6777267 13.5086986,19.4363373 13.5081641,19.1415973 C13.5083366,19.0690057 13.4482683,19.0102326 13.3742501,19.0102326 C13.3002319,19.010062 13.2401591,19.0688307 13.2399804,19.1412475" id="path7637" fill="#3DCC3D"></path>
    </g>
  </g>
</svg>