<!DOCTYPE svg PUBLIC "-//W3C//DTD SVG 1.1//EN" "http://www.w3.org/Graphics/SVG/1.1/DTD/svg11.dtd">
<!-- Uploaded to: SVG Repo, www.svgrepo.com, Transformed by: SVG Repo Mixer Tools -->
<svg width="800px" height="800px" viewBox="-4.8 -4.8 57.60 57.60" version="1" xmlns="http://www.w3.org/2000/svg" enable-background="new 0 0 48 48" fill="#f99fc8">
<g id="SVGRepo_bgCarrier" stroke-width="0" transform="translate(0,0), scale(1)">
<path transform="translate(-4.8, -4.8), scale(1.7999999999999998)" d="M16,31.9601507964544C18.259800581554398,32.306341204955615,19.45008427588616,29.072306131444215,21.129583081592276,27.521232236053166C22.401135794596073,26.346910341299186,23.70154420784981,25.2557660780584,24.750380910171117,23.87887836066469C25.74803990669279,22.569175510432803,26.851314089254,21.241499380868902,27.14689710370902,19.621846420876597C27.435773260837184,18.03894381794292,26.028607872987184,16.476739300059464,26.387504139801038,14.908229321067164C26.964401597323185,12.386973173679886,30.09117828635534,10.603243582492219,29.79848013614997,8.033443778986115C29.548919853169046,5.842381192094727,27.160963769912538,4.242648265390989,25.087257464578467,3.4924631190874855C23.01248181517693,2.741891126279421,20.759173697241355,4.113809966714906,18.557698946702292,3.966972524363099C16.697217628195755,3.842879200882588,14.863991327018022,1.9130790634911015,13.172520575758764,2.697755166783857C11.329587073232657,3.55269509306592,11.68410198655649,6.608192800070942,10.106067818069178,7.8876983043072C8.64475114135081,9.07256664786514,5.954378155909586,8.055599733640701,4.765930526813541,9.514006965560833C3.641193224201404,10.89423187070667,4.4794428496528145,13.008936999251455,4.4819109267170205,14.78940005623064C4.484183872560923,16.42909606259701,4.747157253715748,18.006237997842597,4.779974946267753,19.645607132184278C4.823957972004323,21.84272732012032,3.115959743668504,24.65279298664355,4.709650784177889,26.165876095461165C6.3757276997032974,27.747683845391602,9.481558806227937,25.000977107676377,11.525482458844461,26.04993094291479C13.748151289675056,27.19061787198868,13.53052558730468,31.581839381415183,16,31.9601507964544" fill="#8de6fc" strokewidth="0"/>
</g>
<g id="SVGRepo_tracerCarrier" stroke-linecap="round" stroke-linejoin="round" stroke="#FF338F" stroke-width="4.8"> <polygon fill="#f99fc8" points="39.4,23 38.6,19 26,21.6 26,8 22,8 22,20.3 8.1,11.3 5.9,14.7 21.1,24.5 9.4,39.8 12.6,42.2 23.9,27.4 32.3,40.1 35.7,37.9 27.3,25.4"/> <circle fill="#f99fc8" cx="24" cy="24" r="7"/> <g fill="#f99fc8"> <circle cx="24" cy="8" r="5"/> <circle cx="39" cy="21" r="5"/> <circle cx="7" cy="13" r="5"/> <circle cx="11" cy="41" r="5"/> <circle cx="34" cy="39" r="5"/> </g> </g>
<g id="SVGRepo_iconCarrier"> <polygon fill="#f99fc8" points="39.4,23 38.6,19 26,21.6 26,8 22,8 22,20.3 8.1,11.3 5.9,14.7 21.1,24.5 9.4,39.8 12.6,42.2 23.9,27.4 32.3,40.1 35.7,37.9 27.3,25.4"/> <circle fill="#f99fc8" cx="24" cy="24" r="7"/> <g fill="#f99fc8"> <circle cx="24" cy="8" r="5"/> <circle cx="39" cy="21" r="5"/> <circle cx="7" cy="13" r="5"/> <circle cx="11" cy="41" r="5"/> <circle cx="34" cy="39" r="5"/> </g> </g>
</svg>